<?xml version="1.0" encoding="UTF-8" standalone="no"?>
<!DOCTYPE svg PUBLIC "-//W3C//DTD SVG 1.1//EN" "http://www.w3.org/Graphics/SVG/1.1/DTD/svg11.dtd">
<svg xmlns="http://www.w3.org/2000/svg" version="1.1" viewBox="0.00 0.00 1219.00 663.00">
<path fill="#ffffff" d="
  M 311.21 83.48
  Q 312.87 78.83 316.85 76.83
  Q 320.20 75.14 323.85 75.95
  Q 328.31 76.95 330.62 80.91
  Q 332.41 83.99 332.91 88.01
  Q 333.07 89.31 333.03 93.01
  Q 333.00 95.36 332.65 97.97
  Q 327.46 136.73 321.89 177.59
  Q 321.33 181.75 316.78 182.11
  Q 316.67 182.12 316.57 182.11
  Q 312.04 181.59 311.88 176.73
  Q 310.50 135.52 309.28 95.27
  Q 309.10 89.37 311.21 83.48
  Z"
/>
<path fill="#ffffff" d="
  M 173.86 127.27
  Q 176.80 123.19 182.07 123.09
  C 188.61 122.95 194.40 129.18 197.69 134.48
  Q 218.04 167.25 240.51 203.46
  C 242.13 206.07 241.76 209.28 239.07 211.02
  C 236.57 212.63 233.78 211.17 232.03 209.19
  Q 204.23 177.65 178.88 148.74
  C 174.16 143.35 168.80 134.32 173.86 127.27
  Z"
/>
<path fill="#ffffff" d="
  M 844.18 263.25
  L 874.00 263.25
  Q 874.50 263.25 874.50 263.75
  L 874.50 312.75
  A 0.25 0.25 0.0 0 1 874.25 313.00
  L 844.00 313.00
  Q 843.50 313.00 843.50 313.50
  L 843.50 502.50
  A 0.25 0.25 0.0 0 1 843.25 502.75
  L 776.25 502.75
  A 0.25 0.25 0.0 0 1 776.00 502.50
  L 776.00 314.00
  A 1.00 1.00 0.0 0 0 775.00 313.00
  L 748.75 313.00
  A 0.25 0.25 0.0 0 1 748.50 312.75
  L 748.50 263.75
  Q 748.50 263.25 749.00 263.25
  L 775.47 263.25
  Q 776.03 263.25 776.03 262.69
  Q 775.97 254.56 776.00 246.46
  C 776.07 226.73 781.48 207.43 796.41 194.30
  C 816.81 176.37 848.30 174.67 873.88 175.30
  Q 874.50 175.32 874.50 175.94
  L 874.50 223.77
  Q 874.50 224.60 873.68 224.58
  Q 866.78 224.39 864.23 224.84
  Q 848.52 227.57 844.57 241.71
  C 842.77 248.13 843.68 255.57 843.44 262.48
  Q 843.41 263.25 844.18 263.25
  Z"
/>
<path fill="#ffffff" d="
  M 475.25 385.25
  L 475.25 182.05
  Q 475.25 181.60 475.70 181.60
  Q 501.65 181.28 508.73 181.52
  Q 519.72 181.90 530.99 181.72
  Q 535.46 181.65 540.51 182.82
  Q 551.17 185.31 552.88 196.51
  C 554.44 206.72 553.52 218.03 553.51 228.60
  Q 553.50 256.92 553.49 285.25
  Q 553.49 286.23 553.48 287.25
  Q 553.10 324.31 553.27 352.00
  C 553.28 352.99 553.00 353.95 553.00 354.94
  Q 553.13 394.54 552.75 434.71
  Q 552.75 435.25 553.29 435.25
  L 649.50 435.25
  A 0.25 0.25 0.0 0 1 649.75 435.50
  L 649.75 502.25
  Q 649.75 502.75 649.25 502.75
  L 475.75 502.75
  Q 475.25 502.75 475.25 502.25
  L 475.25 445.75
  Q 475.25 445.25 474.75 445.25
  L 457.75 445.25
  Q 457.25 445.25 457.25 445.75
  L 457.25 502.25
  Q 457.25 502.75 456.75 502.75
  L 383.50 502.75
  A 0.25 0.25 0.0 0 1 383.25 502.50
  L 383.25 445.75
  Q 383.25 445.25 382.75 445.25
  L 239.51 445.25
  Q 239.02 445.25 239.02 444.76
  L 238.93 389.49
  A 4.41 4.39 -27.8 0 1 239.71 386.99
  L 383.45 182.02
  A 1.24 1.24 0.0 0 1 384.46 181.50
  L 456.75 181.50
  Q 457.25 181.50 457.25 182.00
  L 457.25 385.25
  Q 457.25 385.75 457.75 385.75
  L 474.75 385.75
  Q 475.25 385.75 475.25 385.25
  Z
  M 314.94 385.23
  A 0.34 0.34 0.0 0 0 315.23 385.75
  L 388.16 385.75
  A 0.34 0.34 0.0 0 0 388.50 385.41
  L 388.50 277.58
  A 0.34 0.34 0.0 0 0 388.16 277.24
  L 383.08 277.25
  A 0.34 0.34 0.0 0 0 382.79 277.41
  L 314.94 385.23
  Z
  M 493.25 386.26
  A 0.26 0.26 0.0 0 0 492.99 386.00
  L 475.75 386.00
  A 0.26 0.26 0.0 0 0 475.49 386.26
  L 475.49 444.74
  A 0.26 0.26 0.0 0 0 475.75 445.00
  L 492.99 445.00
  A 0.26 0.26 0.0 0 0 493.25 444.74
  L 493.25 386.26
  Z"
/>
<rect fill="#ffffff" x="665.75" y="181.49" width="67.50" height="49.76" rx="0.37"/>
<path fill="#ffffff" d="
  M 126.06 240.86
  Q 157.57 253.49 188.44 265.65
  Q 191.46 266.84 192.25 269.07
  C 193.69 273.07 190.41 276.54 186.32 275.65
  Q 139.83 265.62 107.69 258.73
  Q 100.59 257.20 95.53 253.83
  C 90.71 250.62 88.23 244.40 91.31 239.22
  C 95.97 231.37 106.14 233.08 113.51 235.92
  Q 119.94 238.40 126.06 240.86
  Z"
/>
<path fill="#ffffff" d="
  M 936.48 402.25
  A 0.52 0.52 0.0 0 0 935.96 402.83
  C 940.10 438.67 971.32 458.40 1005.69 454.24
  C 1020.90 452.40 1032.99 444.35 1042.61 432.09
  Q 1042.88 431.75 1043.31 431.75
  L 1111.30 431.75
  Q 1112.18 431.75 1111.80 432.54
  C 1100.97 455.10 1086.20 474.15 1066.10 488.50
  Q 1036.98 509.27 1001.95 510.60
  C 921.73 513.65 859.30 443.28 871.28 364.05
  C 879.66 308.63 922.91 263.23 979.35 255.90
  C 1023.44 250.18 1067.34 267.23 1094.76 302.52
  C 1115.90 329.74 1125.62 366.78 1121.05 401.57
  A 0.79 0.78 3.7 0 1 1120.27 402.25
  L 936.48 402.25
  Z
  M 1055.26 358.41
  C 1051.29 335.08 1033.80 317.28 1010.93 312.33
  Q 996.83 309.27 982.16 312.09
  C 958.76 316.59 940.93 334.59 936.70 358.09
  Q 936.58 358.75 937.24 358.75
  L 1054.97 358.75
  Q 1055.32 358.75 1055.26 358.41
  Z"
/>
<path fill="#ffffff" d="
  M 712.03 263.21
  C 725.76 263.15 733.23 268.83 733.23 283.41
  Q 733.27 389.76 733.24 502.22
  Q 733.24 502.75 732.71 502.75
  L 666.00 502.75
  Q 665.75 502.75 665.75 502.50
  L 665.75 263.79
  Q 665.75 263.21 666.33 263.22
  Q 689.75 263.32 712.03 263.21
  Z"
/>
<path fill="#ffffff" d="
  M 98.15 368.68
  Q 136.52 356.66 176.29 344.31
  Q 180.55 342.99 183.08 346.88
  Q 183.14 346.98 183.17 347.09
  Q 184.14 351.61 180.44 353.49
  Q 145.06 371.48 108.55 389.85
  Q 103.94 392.17 99.08 393.29
  Q 95.17 394.20 91.51 393.28
  Q 86.78 392.10 84.60 387.87
  Q 82.79 384.33 83.88 380.40
  Q 84.99 376.40 88.69 373.59
  Q 93.03 370.29 98.15 368.68
  Z"
/>
<path fill="#ffffff" d="
  M 1111.1264 512.4700
  A 13.55 12.89 90.1 0 1 1098.2600 498.8975
  A 13.55 12.89 90.1 0 1 1111.1736 485.3700
  A 13.55 12.89 90.1 0 1 1124.0400 498.9425
  A 13.55 12.89 90.1 0 1 1111.1264 512.4700
  Z
  M 1111.1978 509.9598
  A 11.04 10.42 89.7 0 0 1121.5599 498.8654
  A 11.04 10.42 89.7 0 0 1111.0822 487.8802
  A 11.04 10.42 89.7 0 0 1100.7201 498.9746
  A 11.04 10.42 89.7 0 0 1111.1978 509.9598
  Z"
/>
<path fill="#ffffff" d="
  M 1108.75 501.42
  L 1108.75 506.25
  Q 1108.75 506.49 1108.50 506.49
  L 1106.25 506.50
  A 0.50 0.50 0.0 0 1 1105.75 506.00
  L 1105.75 491.71
  Q 1105.75 491.11 1106.35 491.07
  C 1111.23 490.74 1117.74 490.40 1116.71 496.90
  A 1.48 1.47 71.4 0 1 1116.31 497.71
  L 1115.53 498.52
  Q 1115.08 498.98 1115.54 499.43
  L 1116.16 500.05
  A 1.25 1.24 20.0 0 1 1116.52 500.82
  L 1116.96 506.00
  Q 1117.01 506.50 1116.51 506.50
  L 1114.43 506.50
  Q 1114.10 506.50 1114.06 506.18
  L 1113.63 502.53
  Q 1113.43 500.83 1111.75 500.60
  Q 1110.85 500.48 1109.89 500.39
  Q 1108.75 500.28 1108.75 501.42
  Z
  M 1108.74 493.71
  L 1108.76 497.49
  A 0.24 0.24 0.0 0 0 1109.00 497.73
  L 1110.87 497.72
  A 2.87 1.96 -0.2 0 0 1113.73 495.75
  L 1113.73 495.41
  A 2.87 1.96 -0.2 0 0 1110.85 493.46
  L 1108.98 493.47
  A 0.24 0.24 0.0 0 0 1108.74 493.71
  Z"
/>
<path fill="#ffffff" d="
  M 400.12 569.70
  L 400.13 575.62
  Q 400.13 576.00 399.76 576.00
  L 396.25 576.00
  A 0.50 0.50 0.0 0 1 395.75 575.50
  L 395.75 569.50
  Q 395.75 569.00 395.25 569.00
  L 380.94 569.00
  Q 380.22 569.00 380.23 568.28
  C 380.24 567.21 380.14 566.26 380.74 565.32
  Q 388.53 553.18 395.26 542.42
  Q 395.52 542.00 396.02 542.00
  L 399.56 542.00
  Q 400.13 542.00 400.13 542.56
  L 400.12 564.43
  Q 400.12 564.99 400.68 564.99
  L 404.65 565.02
  Q 404.83 565.02 404.83 565.21
  L 404.84 568.80
  Q 404.84 568.98 404.67 568.98
  L 400.80 569.01
  Q 400.12 569.01 400.12 569.70
  Z
  M 385.47 564.54
  A 0.31 0.31 0.0 0 0 385.73 565.01
  L 395.41 565.00
  A 0.31 0.31 0.0 0 0 395.72 564.69
  L 395.81 548.99
  A 0.31 0.31 0.0 0 0 395.24 548.82
  L 385.47 564.54
  Z"
/>
<path fill="#ffffff" d="
  M 417.80 572.00
  L 433.22 572.00
  A 0.34 0.34 0.0 0 1 433.56 572.34
  L 433.57 575.66
  A 0.34 0.34 0.0 0 1 433.23 576.00
  L 413.34 575.99
  A 0.34 0.34 0.0 0 1 413.00 575.65
  L 413.00 542.34
  A 0.34 0.34 0.0 0 1 413.34 542.00
  L 417.13 542.00
  A 0.34 0.34 0.0 0 1 417.47 542.34
  L 417.46 571.66
  A 0.34 0.34 0.0 0 0 417.80 572.00
  Z"
/>
<rect fill="#ffffff" x="441.26" y="542.01" width="4.48" height="33.98" rx="0.38"/>
<path fill="#ffffff" d="
  M 461.45 561.34
  L 461.47 575.65
  A 0.34 0.34 0.0 0 1 461.13 575.99
  L 457.34 576.00
  A 0.34 0.34 0.0 0 1 457.00 575.66
  L 457.00 542.33
  A 0.34 0.34 0.0 0 1 457.34 541.99
  L 477.78 542.03
  A 0.34 0.34 0.0 0 1 478.12 542.37
  L 478.11 545.59
  A 0.34 0.34 0.0 0 1 477.77 545.93
  L 461.78 546.01
  A 0.34 0.34 0.0 0 0 461.44 546.35
  L 461.47 556.66
  A 0.34 0.34 0.0 0 0 461.81 557.00
  L 475.40 557.00
  A 0.34 0.34 0.0 0 1 475.74 557.34
  L 475.72 560.66
  A 0.34 0.34 0.0 0 1 475.38 561.00
  L 461.79 561.00
  A 0.34 0.34 0.0 0 0 461.45 561.34
  Z"
/>
<path fill="#ffffff" d="
  M 490.46 546.29
  L 490.46 556.66
  A 0.34 0.34 0.0 0 0 490.80 557.00
  L 504.92 557.00
  A 0.34 0.34 0.0 0 1 505.26 557.34
  L 505.25 560.66
  A 0.34 0.34 0.0 0 1 504.91 561.00
  L 490.80 561.00
  A 0.34 0.34 0.0 0 0 490.46 561.34
  L 490.46 571.66
  A 0.34 0.34 0.0 0 0 490.80 572.00
  L 507.22 572.00
  A 0.34 0.34 0.0 0 1 507.56 572.34
  L 507.57 575.66
  A 0.34 0.34 0.0 0 1 507.23 576.00
  L 486.34 575.98
  A 0.34 0.34 0.0 0 1 486.00 575.64
  L 486.01 542.35
  A 0.34 0.34 0.0 0 1 486.35 542.01
  L 507.04 542.00
  A 0.34 0.34 0.0 0 1 507.38 542.34
  L 507.40 545.62
  A 0.34 0.34 0.0 0 1 507.06 545.96
  L 490.80 545.95
  A 0.34 0.34 0.0 0 0 490.46 546.29
  Z"
/>
<rect fill="#ffffff" x="530.26" y="542.01" width="4.48" height="33.98" rx="0.37"/>
<path fill="#ffffff" d="
  M 567.05 542.01
  L 570.93 542.00
  A 0.32 0.32 0.0 0 1 571.25 542.32
  L 571.25 575.68
  A 0.32 0.32 0.0 0 1 570.93 576.00
  L 566.86 575.98
  A 0.32 0.32 0.0 0 1 566.60 575.84
  L 550.03 550.57
  A 0.32 0.32 0.0 0 0 549.44 550.74
  L 549.48 575.66
  A 0.32 0.32 0.0 0 1 549.16 575.98
  L 545.32 576.01
  A 0.32 0.32 0.0 0 1 545.00 575.69
  L 545.00 542.32
  A 0.32 0.32 0.0 0 1 545.32 542.00
  L 549.31 542.01
  A 0.32 0.32 0.0 0 1 549.57 542.15
  L 566.20 567.62
  A 0.32 0.32 0.0 0 0 566.79 567.44
  L 566.73 542.33
  A 0.32 0.32 0.0 0 1 567.05 542.01
  Z"
/>
<path fill="#ffffff" d="
  M 582.00 542.29
  A 0.30 0.30 0.0 0 1 582.30 541.99
  L 592.05 541.99
  A 14.64 14.49 90.0 0 1 606.54 556.63
  L 606.54 561.37
  A 14.64 14.49 90.0 0 1 592.05 576.01
  L 582.30 576.01
  A 0.30 0.30 0.0 0 1 582.00 575.71
  L 582.00 542.29
  Z
  M 586.53 546.32
  L 586.39 571.60
  A 0.42 0.42 0.0 0 0 586.81 572.02
  L 591.74 572.05
  A 10.53 10.39 -89.7 0 0 602.19 561.57
  L 602.21 556.51
  A 10.53 10.39 -89.7 0 0 591.88 545.93
  L 586.95 545.90
  A 0.42 0.42 0.0 0 0 586.53 546.32
  Z"
/>
<path fill="#ffffff" d="
  M 620.46 546.32
  L 620.46 556.66
  A 0.34 0.34 0.0 0 0 620.80 557.00
  L 634.91 557.00
  A 0.34 0.34 0.0 0 1 635.25 557.34
  L 635.25 560.66
  A 0.34 0.34 0.0 0 1 634.91 561.00
  L 620.80 561.00
  A 0.34 0.34 0.0 0 0 620.46 561.34
  L 620.46 571.66
  A 0.34 0.34 0.0 0 0 620.80 572.00
  L 637.22 572.00
  A 0.34 0.34 0.0 0 1 637.56 572.34
  L 637.57 575.66
  A 0.34 0.34 0.0 0 1 637.23 576.00
  L 616.34 576.00
  A 0.34 0.34 0.0 0 1 616.00 575.66
  L 616.01 542.35
  A 0.34 0.34 0.0 0 1 616.35 542.01
  L 637.05 542.00
  A 0.34 0.34 0.0 0 1 637.39 542.34
  L 637.39 545.61
  A 0.34 0.34 0.0 0 1 637.05 545.95
  L 620.80 545.98
  A 0.34 0.34 0.0 0 0 620.46 546.32
  Z"
/>
<path fill="#ffffff" d="
  M 650.46 563.69
  L 650.47 575.51
  Q 650.47 576.00 649.99 576.00
  L 646.50 575.99
  Q 646.00 575.99 646.00 575.50
  L 646.00 542.70
  Q 646.00 541.95 646.74 541.97
  Q 651.76 542.09 657.05 541.95
  C 663.30 541.77 669.21 543.96 670.31 550.49
  Q 671.07 554.94 669.02 558.26
  C 665.51 563.97 657.32 563.25 651.26 562.93
  Q 650.46 562.88 650.46 563.69
  Z
  M 650.44 546.28
  L 650.48 558.80
  A 0.25 0.25 0.0 0 0 650.73 559.05
  L 659.52 559.02
  A 6.52 6.13 -0.2 0 0 666.02 552.86
  L 666.02 552.10
  A 6.52 6.13 -0.2 0 0 659.48 546.00
  L 650.69 546.03
  A 0.25 0.25 0.0 0 0 650.44 546.28
  Z"
/>
<path fill="#ffffff" d="
  M 683.80 557.00
  L 697.91 557.00
  A 0.34 0.34 0.0 0 1 698.25 557.34
  L 698.25 560.66
  A 0.34 0.34 0.0 0 1 697.91 561.00
  L 683.78 561.00
  A 0.34 0.34 0.0 0 0 683.44 561.34
  L 683.46 571.66
  A 0.34 0.34 0.0 0 0 683.80 572.00
  L 700.22 572.00
  A 0.34 0.34 0.0 0 1 700.56 572.34
  L 700.57 575.66
  A 0.34 0.34 0.0 0 1 700.23 576.00
  L 679.34 576.00
  A 0.34 0.34 0.0 0 1 679.00 575.66
  L 679.01 542.35
  A 0.34 0.34 0.0 0 1 679.35 542.01
  L 700.05 542.00
  A 0.34 0.34 0.0 0 1 700.39 542.34
  L 700.39 545.65
  A 0.34 0.34 0.0 0 1 700.05 545.99
  L 683.79 546.00
  A 0.34 0.34 0.0 0 0 683.45 546.34
  L 683.46 556.66
  A 0.34 0.34 0.0 0 0 683.80 557.00
  Z"
/>
<path fill="#ffffff" d="
  M 731.05 542.00
  L 734.93 542.00
  A 0.32 0.32 0.0 0 1 735.25 542.32
  L 735.25 575.68
  A 0.32 0.32 0.0 0 1 734.93 576.00
  L 730.86 575.98
  A 0.32 0.32 0.0 0 1 730.60 575.84
  L 714.03 550.57
  A 0.32 0.32 0.0 0 0 713.44 550.74
  L 713.48 575.66
  A 0.32 0.32 0.0 0 1 713.16 575.98
  L 709.32 576.01
  A 0.32 0.32 0.0 0 1 709.00 575.69
  L 709.00 542.32
  A 0.32 0.32 0.0 0 1 709.32 542.00
  L 713.31 542.01
  A 0.32 0.32 0.0 0 1 713.57 542.15
  L 730.20 567.62
  A 0.32 0.32 0.0 0 0 730.79 567.44
  L 730.73 542.32
  A 0.32 0.32 0.0 0 1 731.05 542.00
  Z"
/>
<path fill="#ffffff" d="
  M 745.00 542.28
  A 0.30 0.30 0.0 0 1 745.30 541.98
  L 754.95 541.98
  A 14.59 14.57 0.0 0 1 769.54 556.55
  L 769.54 561.45
  A 14.59 14.57 0.0 0 1 754.95 576.02
  L 745.30 576.02
  A 0.30 0.30 0.0 0 1 745.00 575.72
  L 745.00 542.28
  Z
  M 749.51 546.26
  L 749.43 571.68
  A 0.33 0.33 0.0 0 0 749.75 572.01
  L 754.95 572.03
  A 10.56 10.19 -89.8 0 0 765.18 561.51
  L 765.20 556.55
  A 10.56 10.19 -89.8 0 0 755.05 545.95
  L 749.85 545.93
  A 0.33 0.33 0.0 0 0 749.51 546.26
  Z"
/>
<path fill="#ffffff" d="
  M 783.46 561.34
  L 783.46 571.66
  A 0.34 0.34 0.0 0 0 783.80 572.00
  L 800.22 572.00
  A 0.34 0.34 0.0 0 1 800.56 572.34
  L 800.57 575.66
  A 0.34 0.34 0.0 0 1 800.23 576.00
  L 779.33 576.00
  A 0.34 0.34 0.0 0 1 778.99 575.66
  L 779.01 542.35
  A 0.34 0.34 0.0 0 1 779.35 542.01
  L 800.05 542.00
  A 0.34 0.34 0.0 0 1 800.39 542.34
  L 800.39 545.66
  A 0.34 0.34 0.0 0 1 800.05 546.00
  L 783.80 546.00
  A 0.34 0.34 0.0 0 0 783.46 546.34
  L 783.46 556.66
  A 0.34 0.34 0.0 0 0 783.80 557.00
  L 797.91 557.00
  A 0.34 0.34 0.0 0 1 798.25 557.34
  L 798.25 560.66
  A 0.34 0.34 0.0 0 1 797.91 561.00
  L 783.80 561.00
  A 0.34 0.34 0.0 0 0 783.46 561.34
  Z"
/>
<path fill="#ffffff" d="
  M 831.05 542.00
  L 834.93 542.00
  A 0.32 0.32 0.0 0 1 835.25 542.32
  L 835.25 575.68
  A 0.32 0.32 0.0 0 1 834.93 576.00
  L 830.86 575.98
  A 0.32 0.32 0.0 0 1 830.60 575.84
  L 814.03 550.57
  A 0.32 0.32 0.0 0 0 813.44 550.74
  L 813.48 575.66
  A 0.32 0.32 0.0 0 1 813.16 575.98
  L 809.32 576.01
  A 0.32 0.32 0.0 0 1 809.00 575.69
  L 809.00 542.32
  A 0.32 0.32 0.0 0 1 809.32 542.00
  L 813.31 542.01
  A 0.32 0.32 0.0 0 1 813.57 542.15
  L 830.20 567.62
  A 0.32 0.32 0.0 0 0 830.79 567.44
  L 830.73 542.32
  A 0.32 0.32 0.0 0 1 831.05 542.00
  Z"
/>
<path fill="#ffffff" d="
  M 852.86 546.00
  L 842.50 545.99
  A 0.34 0.34 0.0 0 1 842.16 545.65
  L 842.15 542.34
  A 0.34 0.34 0.0 0 1 842.49 542.00
  L 868.14 542.00
  A 0.34 0.34 0.0 0 1 868.48 542.34
  L 868.46 545.65
  A 0.34 0.34 0.0 0 1 868.12 545.99
  L 857.87 546.01
  A 0.34 0.34 0.0 0 0 857.53 546.35
  L 857.54 575.65
  A 0.34 0.34 0.0 0 1 857.20 575.99
  L 853.53 576.01
  A 0.34 0.34 0.0 0 1 853.19 575.67
  L 853.20 546.34
  A 0.34 0.34 0.0 0 0 852.86 546.00
  Z"
/>
<path fill="#ffffff" d="
  M 894.42 567.20
  L 891.34 575.79
  A 0.30 0.30 0.0 0 1 891.06 575.99
  L 887.11 576.01
  A 0.30 0.30 0.0 0 1 886.83 575.60
  L 899.66 542.20
  A 0.30 0.30 0.0 0 1 899.94 542.01
  L 903.37 542.01
  A 0.30 0.30 0.0 0 1 903.65 542.20
  L 916.52 575.60
  A 0.30 0.30 0.0 0 1 916.24 576.01
  L 912.31 576.00
  A 0.30 0.30 0.0 0 1 912.03 575.80
  L 908.92 567.20
  A 0.30 0.30 0.0 0 0 908.64 567.00
  L 894.70 567.00
  A 0.30 0.30 0.0 0 0 894.42 567.20
  Z
  M 896.00 562.56
  A 0.32 0.32 0.0 0 0 896.30 563.00
  L 907.02 563.00
  A 0.32 0.32 0.0 0 0 907.32 562.56
  L 901.96 548.29
  A 0.32 0.32 0.0 0 0 901.36 548.29
  L 896.00 562.56
  Z"
/>
<path fill="#ffffff" d="
  M 928.46 546.39
  L 928.46 556.62
  A 0.38 0.38 0.0 0 0 928.84 557.00
  L 942.36 557.00
  A 0.38 0.38 0.0 0 1 942.74 557.38
  L 942.72 560.62
  A 0.38 0.38 0.0 0 1 942.34 561.00
  L 928.84 561.00
  A 0.38 0.38 0.0 0 0 928.46 561.38
  L 928.47 575.61
  A 0.38 0.38 0.0 0 1 928.09 575.99
  L 924.38 576.00
  A 0.38 0.38 0.0 0 1 924.00 575.62
  L 924.01 542.36
  A 0.38 0.38 0.0 0 1 924.39 541.98
  L 944.73 542.08
  A 0.38 0.38 0.0 0 1 945.11 542.46
  L 945.12 545.43
  A 0.38 0.38 0.0 0 1 944.74 545.81
  L 928.84 546.01
  A 0.38 0.38 0.0 0 0 928.46 546.39
  Z"
/>
<path fill="#ffffff" d="
  M 957.86 557.00
  L 971.35 557.00
  A 0.39 0.39 0.0 0 1 971.74 557.39
  L 971.73 560.61
  A 0.39 0.39 0.0 0 1 971.34 561.00
  L 957.83 561.00
  A 0.39 0.39 0.0 0 0 957.44 561.39
  L 957.48 575.60
  A 0.39 0.39 0.0 0 1 957.09 575.99
  L 953.38 576.00
  A 0.39 0.39 0.0 0 1 952.99 575.61
  L 953.01 542.40
  A 0.39 0.39 0.0 0 1 953.40 542.01
  L 973.72 542.00
  A 0.39 0.39 0.0 0 1 974.11 542.39
  L 974.13 545.58
  A 0.39 0.39 0.0 0 1 973.74 545.97
  L 957.82 545.98
  A 0.39 0.39 0.0 0 0 957.43 546.37
  L 957.47 556.61
  A 0.39 0.39 0.0 0 0 957.86 557.00
  Z"
/>
<rect fill="#ffffff" x="982.26" y="542.01" width="4.48" height="33.98" rx="0.38"/>
<path fill="#ffffff" d="
  M 1001.80 572.00
  L 1017.22 572.00
  A 0.34 0.34 0.0 0 1 1017.56 572.34
  L 1017.57 575.66
  A 0.34 0.34 0.0 0 1 1017.23 576.00
  L 997.34 576.00
  A 0.34 0.34 0.0 0 1 997.00 575.66
  L 997.00 542.33
  A 0.34 0.34 0.0 0 1 997.34 541.99
  L 1001.13 542.00
  A 0.34 0.34 0.0 0 1 1001.47 542.34
  L 1001.46 571.66
  A 0.34 0.34 0.0 0 0 1001.80 572.00
  Z"
/>
<rect fill="#ffffff" x="1026.26" y="542.01" width="4.48" height="33.98" rx="0.37"/>
<path fill="#ffffff" d="
  M 1046.42 567.20
  L 1043.34 575.79
  A 0.30 0.30 0.0 0 1 1043.06 575.99
  L 1039.11 576.01
  A 0.30 0.30 0.0 0 1 1038.83 575.60
  L 1051.66 542.20
  A 0.30 0.30 0.0 0 1 1051.94 542.01
  L 1055.37 542.01
  A 0.30 0.30 0.0 0 1 1055.65 542.20
  L 1068.52 575.59
  A 0.30 0.30 0.0 0 1 1068.24 576.00
  L 1064.31 576.00
  A 0.30 0.30 0.0 0 1 1064.03 575.80
  L 1060.92 567.20
  A 0.30 0.30 0.0 0 0 1060.64 567.00
  L 1046.70 567.00
  A 0.30 0.30 0.0 0 0 1046.42 567.20
  Z
  M 1048.00 562.56
  A 0.32 0.32 0.0 0 0 1048.30 563.00
  L 1059.02 563.00
  A 0.32 0.32 0.0 0 0 1059.32 562.56
  L 1053.96 548.29
  A 0.32 0.32 0.0 0 0 1053.36 548.29
  L 1048.00 562.56
  Z"
/>
<path fill="#ffffff" d="
  M 1080.86 545.99
  L 1070.58 545.98
  A 0.34 0.34 0.0 0 1 1070.24 545.65
  L 1070.15 542.35
  A 0.34 0.34 0.0 0 1 1070.49 542.00
  L 1096.14 542.00
  A 0.34 0.34 0.0 0 1 1096.48 542.34
  L 1096.46 545.65
  A 0.34 0.34 0.0 0 1 1096.12 545.99
  L 1085.87 546.01
  A 0.34 0.34 0.0 0 0 1085.53 546.35
  L 1085.55 575.65
  A 0.34 0.34 0.0 0 1 1085.21 575.99
  L 1081.53 576.01
  A 0.34 0.34 0.0 0 1 1081.19 575.67
  L 1081.20 546.33
  A 0.34 0.34 0.0 0 0 1080.86 545.99
  Z"
/>
<path fill="#ffffff" d="
  M 1108.47 546.31
  L 1108.46 556.66
  A 0.34 0.34 0.0 0 0 1108.80 557.00
  L 1122.91 557.00
  A 0.34 0.34 0.0 0 1 1123.25 557.34
  L 1123.25 560.66
  A 0.34 0.34 0.0 0 1 1122.91 561.00
  L 1108.80 561.00
  A 0.34 0.34 0.0 0 0 1108.46 561.34
  L 1108.46 571.66
  A 0.34 0.34 0.0 0 0 1108.80 572.00
  L 1125.22 572.00
  A 0.34 0.34 0.0 0 1 1125.56 572.34
  L 1125.57 575.66
  A 0.34 0.34 0.0 0 1 1125.23 576.00
  L 1104.34 576.00
  A 0.34 0.34 0.0 0 1 1104.00 575.66
  L 1104.00 542.35
  A 0.34 0.34 0.0 0 1 1104.34 542.01
  L 1125.05 542.00
  A 0.34 0.34 0.0 0 1 1125.39 542.34
  L 1125.40 545.61
  A 0.34 0.34 0.0 0 1 1125.06 545.95
  L 1108.81 545.97
  A 0.34 0.34 0.0 0 0 1108.47 546.31
  Z"
/>
</svg>
