<svg xmlns="http://www.w3.org/2000/svg" viewBox="0 0 1219 663"><path fill="#fff" d="M311.21 83.48q1.66-4.65 5.64-6.65 3.35-1.69 7-.88 4.46 1 6.77 4.96 1.79 3.08 2.29 7.1.16 1.3.12 5-.03 2.35-.38 4.96-5.19 38.76-10.76 79.62-.56 4.16-5.11 4.52-.11.01-.21 0-4.53-.52-4.69-5.38-1.38-41.21-2.6-81.46-.18-5.9 1.93-11.79ZM173.86 127.27q2.94-4.08 8.21-4.18c6.54-.14 12.33 6.09 15.62 11.39q20.35 32.77 42.82 68.98c1.62 2.61 1.25 5.82-1.44 7.56-2.5 1.61-5.29.15-7.04-1.83q-27.8-31.54-53.15-60.45c-4.72-5.39-10.08-14.42-5.02-21.47ZM844.18 263.25H874q.5 0 .5.5v49a.25.25 0 0 1-.25.25H844q-.5 0-.5.5v189a.25.25 0 0 1-.25.25h-67a.25.25 0 0 1-.25-.25V314a1 1 0 0 0-1-1h-26.25a.25.25 0 0 1-.25-.25v-49q0-.5.5-.5h26.47q.56 0 .56-.56-.06-8.13-.03-16.23c.07-19.73 5.48-39.03 20.41-52.16 20.4-17.93 51.89-19.63 77.47-19q.62.02.62.64v47.83q0 .83-.82.81-6.9-.19-9.45.26-15.71 2.73-19.66 16.87c-1.8 6.42-.89 13.86-1.13 20.77q-.03.77.74.77ZM475.25 385.25v-203.2q0-.45.45-.45 25.95-.32 33.03-.08 10.99.38 22.26.2 4.47-.07 9.52 1.1 10.66 2.49 12.37 13.69c1.56 10.21.64 21.52.63 32.09l-.02 56.65q0 .98-.01 2-.38 37.06-.21 64.75c.01.99-.27 1.95-.27 2.94q.13 39.6-.25 79.77 0 .54.54.54h96.21a.25.25 0 0 1 .25.25v66.75q0 .5-.5.5h-173.5q-.5 0-.5-.5v-56.5q0-.5-.5-.5h-17q-.5 0-.5.5v56.5q0 .5-.5.5H383.5a.25.25 0 0 1-.25-.25v-56.75q0-.5-.5-.5H239.51q-.49 0-.49-.49l-.09-55.27a4.41 4.39-27.8 0 1 .78-2.5l143.74-204.97a1.24 1.24 0 0 1 1.01-.52h72.29q.5 0 .5.5v203.25q0 .5.5.5h17q.5 0 .5-.5Zm-160.31-.02a.34.34 0 0 0 .29.52h72.93a.34.34 0 0 0 .34-.34V277.58a.34.34 0 0 0-.34-.34l-5.08.01a.34.34 0 0 0-.29.16l-67.85 107.82Zm178.31 1.03a.26.26 0 0 0-.26-.26h-17.24a.26.26 0 0 0-.26.26v58.48a.26.26 0 0 0 .26.26h17.24a.26.26 0 0 0 .26-.26v-58.48Z"/><rect width="67.5" height="49.76" x="665.75" y="181.49" fill="#fff" rx=".37"/><path fill="#fff" d="M126.06 240.86q31.51 12.63 62.38 24.79 3.02 1.19 3.81 3.42c1.44 4-1.84 7.47-5.93 6.58q-46.49-10.03-78.63-16.92-7.1-1.53-12.16-4.9c-4.82-3.21-7.3-9.43-4.22-14.61 4.66-7.85 14.83-6.14 22.2-3.3q6.43 2.48 12.55 4.94ZM936.48 402.25a.52.52 0 0 0-.52.58c4.14 35.84 35.36 55.57 69.73 51.41 15.21-1.84 27.3-9.89 36.92-22.15q.27-.34.7-.34h67.99q.88 0 .5.79c-10.83 22.56-25.6 41.61-45.7 55.96q-29.12 20.77-64.15 22.1c-80.22 3.05-142.65-67.32-130.67-146.55 8.38-55.42 51.63-100.82 108.07-108.15 44.09-5.72 87.99 11.33 115.41 46.62 21.14 27.22 30.86 64.26 26.29 99.05a.79.78 3.7 0 1-.78.68H936.48Zm118.78-43.84c-3.97-23.33-21.46-41.13-44.33-46.08q-14.1-3.06-28.77-.24c-23.4 4.5-41.23 22.5-45.46 46q-.12.66.54.66h117.73q.35 0 .29-.34ZM712.03 263.21c13.73-.06 21.2 5.62 21.2 20.2q.04 106.35.01 218.81 0 .53-.53.53H666q-.25 0-.25-.25V263.79q0-.58.58-.57 23.42.1 45.7-.01ZM98.15 368.68q38.37-12.02 78.14-24.37 4.26-1.32 6.79 2.57.06.1.09.21.97 4.52-2.73 6.4-35.38 17.99-71.89 36.36-4.61 2.32-9.47 3.44-3.91.91-7.57-.01-4.73-1.18-6.91-5.41-1.81-3.54-.72-7.47 1.11-4 4.81-6.81 4.34-3.3 9.46-4.91ZM1111.126 512.47a13.55 12.89 90.1 0 1-12.866-13.573 13.55 12.89 90.1 0 1 12.914-13.527 13.55 12.89 90.1 0 1 12.866 13.572 13.55 12.89 90.1 0 1-12.914 13.528Zm.072-2.51a11.04 10.42 89.7 0 0 10.362-11.095 11.04 10.42 89.7 0 0-10.478-10.985 11.04 10.42 89.7 0 0-10.362 11.095 11.04 10.42 89.7 0 0 10.478 10.985Z"/><path fill="#fff" d="M1108.75 501.42v4.83q0 .24-.25.24l-2.25.01a.5.5 0 0 1-.5-.5v-14.29q0-.6.6-.64c4.88-.33 11.39-.67 10.36 5.83a1.48 1.47 71.4 0 1-.4.81l-.78.81q-.45.46.01.91l.62.62a1.25 1.24 20 0 1 .36.77l.44 5.18q.05.5-.45.5h-2.08q-.33 0-.37-.32l-.43-3.65q-.2-1.7-1.88-1.93-.9-.12-1.86-.21-1.14-.11-1.14 1.03Zm-.01-7.71.02 3.78a.24.24 0 0 0 .24.24l1.87-.01a2.87 1.96-.2 0 0 2.86-1.97v-.34a2.87 1.96-.2 0 0-2.88-1.95l-1.87.01a.24.24 0 0 0-.24.24ZM400.12 569.7l.01 5.92q0 .38-.37.38h-3.51a.5.5 0 0 1-.5-.5v-6q0-.5-.5-.5h-14.31q-.72 0-.71-.72c.01-1.07-.09-2.02.51-2.96q7.79-12.14 14.52-22.9.26-.42.76-.42h3.54q.57 0 .57.56l-.01 21.87q0 .56.56.56l3.97.03q.18 0 .18.19l.01 3.59q0 .18-.17.18l-3.87.03q-.68 0-.68.69Zm-14.65-5.16a.31.31 0 0 0 .26.47l9.68-.01a.31.31 0 0 0 .31-.31l.09-15.7a.31.31 0 0 0-.57-.17l-9.77 15.72ZM417.8 572h15.42a.34.34 0 0 1 .34.34l.01 3.32a.34.34 0 0 1-.34.34l-19.89-.01a.34.34 0 0 1-.34-.34v-33.31a.34.34 0 0 1 .34-.34h3.79a.34.34 0 0 1 .34.34l-.01 29.32a.34.34 0 0 0 .34.34Z"/><rect width="4.48" height="33.98" x="441.26" y="542.01" fill="#fff" rx=".38"/><path fill="#fff" d="m461.45 561.34.02 14.31a.34.34 0 0 1-.34.34l-3.79.01a.34.34 0 0 1-.34-.34v-33.33a.34.34 0 0 1 .34-.34l20.44.04a.34.34 0 0 1 .34.34l-.01 3.22a.34.34 0 0 1-.34.34l-15.99.08a.34.34 0 0 0-.34.34l.03 10.31a.34.34 0 0 0 .34.34h13.59a.34.34 0 0 1 .34.34l-.02 3.32a.34.34 0 0 1-.34.34h-13.59a.34.34 0 0 0-.34.34ZM490.46 546.29v10.37a.34.34 0 0 0 .34.34h14.12a.34.34 0 0 1 .34.34l-.01 3.32a.34.34 0 0 1-.34.34H490.8a.34.34 0 0 0-.34.34v10.32a.34.34 0 0 0 .34.34h16.42a.34.34 0 0 1 .34.34l.01 3.32a.34.34 0 0 1-.34.34l-20.89-.02a.34.34 0 0 1-.34-.34l.01-33.29a.34.34 0 0 1 .34-.34l20.69-.01a.34.34 0 0 1 .34.34l.02 3.28a.34.34 0 0 1-.34.34l-16.26-.01a.34.34 0 0 0-.34.34Z"/><rect width="4.48" height="33.98" x="530.26" y="542.01" fill="#fff" rx=".37"/><path fill="#fff" d="m567.05 542.01 3.88-.01a.32.32 0 0 1 .32.32v33.36a.32.32 0 0 1-.32.32l-4.07-.02a.32.32 0 0 1-.26-.14l-16.57-25.27a.32.32 0 0 0-.59.17l.04 24.92a.32.32 0 0 1-.32.32l-3.84.03a.32.32 0 0 1-.32-.32v-33.37a.32.32 0 0 1 .32-.32l3.99.01a.32.32 0 0 1 .26.14l16.63 25.47a.32.32 0 0 0 .59-.18l-.06-25.11a.32.32 0 0 1 .32-.32ZM582 542.29a.3.3 0 0 1 .3-.3h9.75a14.64 14.49 90 0 1 14.49 14.64v4.74a14.64 14.49 90 0 1-14.49 14.64h-9.75a.3.3 0 0 1-.3-.3v-33.42Zm4.53 4.03-.14 25.28a.42.42 0 0 0 .42.42l4.93.03a10.53 10.39-89.7 0 0 10.45-10.48l.02-5.06a10.53 10.39-89.7 0 0-10.33-10.58l-4.93-.03a.42.42 0 0 0-.42.42Z"/><path fill="#fff" d="M620.46 546.32v10.34a.34.34 0 0 0 .34.34h14.11a.34.34 0 0 1 .34.34v3.32a.34.34 0 0 1-.34.34H620.8a.34.34 0 0 0-.34.34v10.32a.34.34 0 0 0 .34.34h16.42a.34.34 0 0 1 .34.34l.01 3.32a.34.34 0 0 1-.34.34h-20.89a.34.34 0 0 1-.34-.34l.01-33.31a.34.34 0 0 1 .34-.34l20.7-.01a.34.34 0 0 1 .34.34v3.27a.34.34 0 0 1-.34.34l-16.25.03a.34.34 0 0 0-.34.34ZM650.46 563.69l.01 11.82q0 .49-.48.49l-3.49-.01q-.5 0-.5-.49v-32.8q0-.75.74-.73 5.02.12 10.31-.02c6.25-.18 12.16 2.01 13.26 8.54q.76 4.45-1.29 7.77c-3.51 5.71-11.7 4.99-17.76 4.67q-.8-.05-.8.76Zm-.02-17.41.04 12.52a.25.25 0 0 0 .25.25l8.79-.03a6.52 6.13-.2 0 0 6.5-6.16v-.76a6.52 6.13-.2 0 0-6.54-6.1l-8.79.03a.25.25 0 0 0-.25.25ZM683.8 557h14.11a.34.34 0 0 1 .34.34v3.32a.34.34 0 0 1-.34.34h-14.13a.34.34 0 0 0-.34.34l.02 10.32a.34.34 0 0 0 .34.34h16.42a.34.34 0 0 1 .34.34l.01 3.32a.34.34 0 0 1-.34.34h-20.89a.34.34 0 0 1-.34-.34l.01-33.31a.34.34 0 0 1 .34-.34l20.7-.01a.34.34 0 0 1 .34.34v3.31a.34.34 0 0 1-.34.34l-16.26.01a.34.34 0 0 0-.34.34l.01 10.32a.34.34 0 0 0 .34.34ZM731.05 542h3.88a.32.32 0 0 1 .32.32v33.36a.32.32 0 0 1-.32.32l-4.07-.02a.32.32 0 0 1-.26-.14l-16.57-25.27a.32.32 0 0 0-.59.17l.04 24.92a.32.32 0 0 1-.32.32l-3.84.03a.32.32 0 0 1-.32-.32v-33.37a.32.32 0 0 1 .32-.32l3.99.01a.32.32 0 0 1 .26.14l16.63 25.47a.32.32 0 0 0 .59-.18l-.06-25.12a.32.32 0 0 1 .32-.32ZM745 542.28a.3.3 0 0 1 .3-.3h9.65a14.59 14.57 0 0 1 14.59 14.57v4.9a14.59 14.57 0 0 1-14.59 14.57h-9.65a.3.3 0 0 1-.3-.3v-33.44Zm4.51 3.98-.08 25.42a.33.33 0 0 0 .32.33l5.2.02a10.56 10.19-89.8 0 0 10.23-10.52l.02-4.96a10.56 10.19-89.8 0 0-10.15-10.6l-5.2-.02a.33.33 0 0 0-.34.33ZM783.46 561.34v10.32a.34.34 0 0 0 .34.34h16.42a.34.34 0 0 1 .34.34l.01 3.32a.34.34 0 0 1-.34.34h-20.9a.34.34 0 0 1-.34-.34l.02-33.31a.34.34 0 0 1 .34-.34l20.7-.01a.34.34 0 0 1 .34.34v3.32a.34.34 0 0 1-.34.34H783.8a.34.34 0 0 0-.34.34v10.32a.34.34 0 0 0 .34.34h14.11a.34.34 0 0 1 .34.34v3.32a.34.34 0 0 1-.34.34H783.8a.34.34 0 0 0-.34.34ZM831.05 542h3.88a.32.32 0 0 1 .32.32v33.36a.32.32 0 0 1-.32.32l-4.07-.02a.32.32 0 0 1-.26-.14l-16.57-25.27a.32.32 0 0 0-.59.17l.04 24.92a.32.32 0 0 1-.32.32l-3.84.03a.32.32 0 0 1-.32-.32v-33.37a.32.32 0 0 1 .32-.32l3.99.01a.32.32 0 0 1 .26.14l16.63 25.47a.32.32 0 0 0 .59-.18l-.06-25.12a.32.32 0 0 1 .32-.32ZM852.86 546l-10.36-.01a.34.34 0 0 1-.34-.34l-.01-3.31a.34.34 0 0 1 .34-.34h25.65a.34.34 0 0 1 .34.34l-.02 3.31a.34.34 0 0 1-.34.34l-10.25.02a.34.34 0 0 0-.34.34l.01 29.3a.34.34 0 0 1-.34.34l-3.67.02a.34.34 0 0 1-.34-.34l.01-29.33a.34.34 0 0 0-.34-.34ZM894.42 567.2l-3.08 8.59a.3.3 0 0 1-.28.2l-3.95.02a.3.3 0 0 1-.28-.41l12.83-33.4a.3.3 0 0 1 .28-.19h3.43a.3.3 0 0 1 .28.19l12.87 33.4a.3.3 0 0 1-.28.41l-3.93-.01a.3.3 0 0 1-.28-.2l-3.11-8.6a.3.3 0 0 0-.28-.2H894.7a.3.3 0 0 0-.28.2Zm1.58-4.64a.32.32 0 0 0 .3.44h10.72a.32.32 0 0 0 .3-.44l-5.36-14.27a.32.32 0 0 0-.6 0L896 562.56ZM928.46 546.39v10.23a.38.38 0 0 0 .38.38h13.52a.38.38 0 0 1 .38.38l-.02 3.24a.38.38 0 0 1-.38.38h-13.5a.38.38 0 0 0-.38.38l.01 14.23a.38.38 0 0 1-.38.38l-3.71.01a.38.38 0 0 1-.38-.38l.01-33.26a.38.38 0 0 1 .38-.38l20.34.1a.38.38 0 0 1 .38.38l.01 2.97a.38.38 0 0 1-.38.38l-15.9.2a.38.38 0 0 0-.38.38ZM957.86 557h13.49a.39.39 0 0 1 .39.39l-.01 3.22a.39.39 0 0 1-.39.39h-13.51a.39.39 0 0 0-.39.39l.04 14.21a.39.39 0 0 1-.39.39l-3.71.01a.39.39 0 0 1-.39-.39l.02-33.21a.39.39 0 0 1 .39-.39l20.32-.01a.39.39 0 0 1 .39.39l.02 3.19a.39.39 0 0 1-.39.39l-15.92.01a.39.39 0 0 0-.39.39l.04 10.24a.39.39 0 0 0 .39.39Z"/><rect width="4.48" height="33.98" x="982.26" y="542.01" fill="#fff" rx=".38"/><path fill="#fff" d="M1001.8 572h15.42a.34.34 0 0 1 .34.34l.01 3.32a.34.34 0 0 1-.34.34h-19.89a.34.34 0 0 1-.34-.34v-33.33a.34.34 0 0 1 .34-.34l3.79.01a.34.34 0 0 1 .34.34l-.01 29.32a.34.34 0 0 0 .34.34Z"/><rect width="4.48" height="33.98" x="1026.26" y="542.01" fill="#fff" rx=".37"/><path fill="#fff" d="m1046.42 567.2-3.08 8.59a.3.3 0 0 1-.28.2l-3.95.02a.3.3 0 0 1-.28-.41l12.83-33.4a.3.3 0 0 1 .28-.19h3.43a.3.3 0 0 1 .28.19l12.87 33.39a.3.3 0 0 1-.28.41h-3.93a.3.3 0 0 1-.28-.2l-3.11-8.6a.3.3 0 0 0-.28-.2h-13.94a.3.3 0 0 0-.28.2Zm1.58-4.64a.32.32 0 0 0 .3.44h10.72a.32.32 0 0 0 .3-.44l-5.36-14.27a.32.32 0 0 0-.6 0l-5.36 14.27ZM1080.86 545.99l-10.28-.01a.34.34 0 0 1-.34-.33l-.09-3.3a.34.34 0 0 1 .34-.35h25.65a.34.34 0 0 1 .34.34l-.02 3.31a.34.34 0 0 1-.34.34l-10.25.02a.34.34 0 0 0-.34.34l.02 29.3a.34.34 0 0 1-.34.34l-3.68.02a.34.34 0 0 1-.34-.34l.01-29.34a.34.34 0 0 0-.34-.34ZM1108.47 546.31l-.01 10.35a.34.34 0 0 0 .34.34h14.11a.34.34 0 0 1 .34.34v3.32a.34.34 0 0 1-.34.34h-14.11a.34.34 0 0 0-.34.34v10.32a.34.34 0 0 0 .34.34h16.42a.34.34 0 0 1 .34.34l.01 3.32a.34.34 0 0 1-.34.34h-20.89a.34.34 0 0 1-.34-.34v-33.31a.34.34 0 0 1 .34-.34l20.71-.01a.34.34 0 0 1 .34.34l.01 3.27a.34.34 0 0 1-.34.34l-16.25.02a.34.34 0 0 0-.34.34Z"/></svg>