<svg xmlns="http://www.w3.org/2000/svg" xml:space="preserve" id="Layer_1" x="0" y="0" style="enable-background:new 0 0 227 273" version="1.1" viewBox="0 0 227 273"><style>.st0{fill:#3c54a5}.st1{fill:#fff}</style><path d="M0 0h227v273H0z" class="st0"/><path d="M7.12 121.38h212.59v144.63H7.12zM54.92 11.89l-.11-.01h-.03c-.78.02-1.8.37-2.28 1.96-.24.81-.26 1.73-.24 2.57l.51 16.07c.01.57.35 1.03.84 1.12.09.02.18.02.27.01.15-.02.3-.08.43-.17.26-.18.43-.49.48-.84l2.14-15.88.02-.08c.1-.8.18-1.73.02-2.57-.31-1.62-1.29-2.08-2.05-2.18M6.2 75.42l.04.11.01.01.01.02c.34.7 1.1 1.48 2.74 1.24.83-.12 1.67-.5 2.43-.87l14.35-7.25c.51-.25.78-.75.66-1.23a.707.707 0 0 0-.11-.25.952.952 0 0 0-.34-.32c-.27-.15-.62-.18-.96-.08l-15.3 4.77-.08.02c-.77.25-1.64.57-2.33 1.07-1.34.95-1.35 2.03-1.12 2.76M25.06 21.93l-.09.06-.02.01-.02.02c-.59.51-1.16 1.43-.51 2.96.33.78.9 1.5 1.45 2.13L36.5 39.18c.37.43.93.57 1.36.33.08-.05.16-.1.22-.17.1-.11.18-.25.22-.41.08-.3.02-.65-.16-.95l-8.45-13.61-.04-.07c-.43-.68-.96-1.45-1.62-1.99-1.27-1.05-2.32-.79-2.97-.38M7.53 45.62l-.04.11v.01l-.01.02c-.17.76-.08 1.84 1.35 2.69.72.43 1.61.67 2.44.85l15.71 3.39c.55.13 1.08-.09 1.29-.54.04-.08.06-.17.07-.27.02-.15 0-.31-.06-.46a1.26 1.26 0 0 0-.69-.67L12.7 44.84l-.07-.04c-.75-.29-1.63-.59-2.48-.64-1.65-.09-2.34.75-2.62 1.46M68.42 75.27H53.25l14-22.25h1.17v22.25zm14.01 0V33.5H67.48L37.86 75.74v11.64h29.48v11.76h15.09V87.38h3.72V75.27h-3.72zM101.97 85.4l.17-46.78c0-3.67-1.04-4.97-4.49-5.06l-11.5-.07v41.77h3.69v12.11h-3.69v11.75h35.62V85.4h-19.8zM125.12 99.13h13.74V55.06c0-2.52-.25-4.88-4.45-4.83-4.2.05-9.28 0-9.28 0v48.9zm0-55.51h13.74V33.5h-13.74v10.12zM166.62 42.26h1.08V32.23h-1.53c-7.96 0-18.53 1.53-18.53 14.73v3.26h-5.61v10.12h5.61v38.79h13.74V60.34h6.33V50.22h-6.33V47.6c-.01-3.94 2.7-5.34 5.24-5.34M180.39 69.75l.16-.77c.72-3.38 4.05-9.09 12.02-9.09 7.96 0 11.3 5.72 12.02 9.09l.16.77h-24.36zm37.95 5.52c0-15.26-11.12-26.76-25.86-26.76-14.16 0-25.68 11.8-25.68 26.31 0 14.31 11.64 25.95 25.95 25.95 5.09 0 9.9-1.52 13.91-4.4 3.98-2.71 7.28-6.73 9.6-11.69h-14.08c-2.01 2.47-4.58 4.7-9.44 4.7-6.5 0-11.47-4.03-12.38-10.04l-.11-.73h37.81c.15-.91.28-1.72.28-3.34M212.78 98.37c0-.49.11-.95.34-1.37.23-.42.54-.75.95-1 .4-.24.84-.36 1.31-.36.47 0 .9.12 1.31.36.4.24.72.58.95 1 .23.42.34.88.34 1.37 0 .5-.12.96-.35 1.38-.23.42-.55.76-.95 1-.4.24-.84.36-1.3.36-.47 0-.91-.12-1.31-.37s-.72-.58-.95-1c-.23-.42-.34-.88-.34-1.37zm.45 0c0 .4.09.78.27 1.13.18.35.44.63.77.84.33.21.7.32 1.11.32.4 0 .77-.1 1.1-.31.33-.21.59-.49.77-.84.18-.35.27-.73.27-1.13s-.09-.78-.27-1.13a2.1 2.1 0 0 0-.78-.84c-.33-.21-.7-.31-1.1-.31-.39 0-.75.1-1.08.3-.33.2-.59.48-.79.83-.18.34-.27.72-.27 1.14zm1.62.27v1.23h-.55v-3.11h1.03c.38 0 .67.09.88.26.21.17.31.41.31.71 0 .27-.13.48-.39.62.14.08.24.19.3.32.06.14.08.31.08.51s0 .34.01.43c.01.08.03.15.05.21v.06H216c-.03-.08-.05-.32-.05-.71 0-.19-.04-.32-.12-.4-.08-.08-.21-.12-.4-.12h-.58zm0-.49h.47c.19 0 .34-.04.46-.12.12-.08.18-.18.18-.31 0-.17-.04-.29-.13-.36s-.24-.11-.47-.11h-.52v.9z" class="st1"/><path d="M27.01 217.78c0-.89-.23-1.57-.68-2.02-.46-.46-1.28-.93-2.49-1.42-2.2-.83-3.78-1.81-4.74-2.93-.96-1.12-1.44-2.44-1.44-3.96 0-1.85.65-3.33 1.96-4.44 1.31-1.12 2.97-1.68 4.99-1.68 1.34 0 2.54.28 3.6.85 1.05.57 1.86 1.37 2.43 2.4.57 1.03.85 2.21.85 3.52h-4.41c0-1.02-.22-1.8-.65-2.34-.43-.53-1.06-.8-1.89-.8-.77 0-1.37.23-1.8.68-.43.46-.65 1.07-.65 1.84 0 .6.24 1.15.72 1.63s1.34.99 2.56 1.51c2.14.77 3.69 1.72 4.66 2.84.97 1.12 1.45 2.55 1.45 4.29 0 1.91-.61 3.39-1.82 4.47-1.21 1.07-2.86 1.61-4.95 1.61-1.41 0-2.7-.29-3.86-.87-1.16-.58-2.07-1.41-2.73-2.5s-.99-2.36-.99-3.83h4.44c0 1.26.25 2.18.74 2.75.49.57 1.29.86 2.41.86 1.52 0 2.29-.82 2.29-2.46zM45.42 219.05h-6.03l-1.17 4.48h-4.68l6.84-21.9h4.05l6.89 21.9H46.6l-1.18-4.48zm-5.07-3.69h4.09l-2.05-7.81-2.04 7.81zM66.29 205.32h-5.41v18.21h-4.44v-18.21h-5.32v-3.69h15.17v3.69zM74.02 223.53H69.6v-21.9h4.42v21.9zM87.43 217.78c0-.89-.23-1.57-.68-2.02-.46-.46-1.29-.93-2.49-1.42-2.2-.83-3.77-1.81-4.74-2.93-.96-1.12-1.44-2.44-1.44-3.96 0-1.85.65-3.33 1.96-4.44 1.31-1.12 2.97-1.68 4.99-1.68 1.34 0 2.54.28 3.59.85 1.05.57 1.86 1.37 2.43 2.4.57 1.03.85 2.21.85 3.52h-4.41c0-1.02-.22-1.8-.65-2.34-.43-.53-1.06-.8-1.89-.8-.77 0-1.37.23-1.8.68-.43.46-.65 1.07-.65 1.84 0 .6.24 1.15.72 1.63.48.49 1.33.99 2.56 1.51 2.14.77 3.69 1.72 4.66 2.84.97 1.12 1.45 2.55 1.45 4.29 0 1.91-.61 3.39-1.82 4.47-1.21 1.07-2.86 1.61-4.95 1.61-1.41 0-2.7-.29-3.87-.87a6.533 6.533 0 0 1-2.73-2.5c-.66-1.08-.99-2.36-.99-3.83h4.44c0 1.26.25 2.18.74 2.75.49.57 1.29.86 2.41.86 1.54 0 2.31-.82 2.31-2.46zM106.75 214.6h-6.87v8.93h-4.42v-21.9h12.12v3.69h-7.7v5.61h6.87v3.67zM120.17 219.05h-6.03l-1.17 4.48h-4.68l6.84-21.9h4.04l6.89 21.9h-4.72l-1.17-4.48zm-5.07-3.69h4.09l-2.05-7.81-2.04 7.81zM143.12 216.24c-.11 2.5-.81 4.39-2.11 5.67-1.29 1.28-3.12 1.93-5.47 1.93-2.48 0-4.37-.81-5.69-2.44-1.32-1.63-1.98-3.95-1.98-6.97v-3.68c0-3.01.68-5.33 2.05-6.96 1.37-1.63 3.26-2.44 5.69-2.44 2.39 0 4.2.67 5.44 2 1.24 1.33 1.94 3.25 2.11 5.75h-4.44c-.04-1.55-.28-2.61-.71-3.2-.44-.59-1.24-.88-2.4-.88-1.18 0-2.02.41-2.51 1.24-.49.83-.75 2.19-.78 4.08v4.14c0 2.17.24 3.67.73 4.48.49.81 1.32 1.22 2.5 1.22 1.16 0 1.97-.28 2.41-.85.44-.57.69-1.59.75-3.08h4.41zM161.48 216.24c-.11 2.5-.81 4.39-2.11 5.67-1.29 1.28-3.12 1.93-5.47 1.93-2.48 0-4.38-.81-5.69-2.44-1.32-1.63-1.98-3.95-1.98-6.97v-3.68c0-3.01.68-5.33 2.05-6.96 1.36-1.63 3.26-2.44 5.69-2.44 2.39 0 4.2.67 5.44 2 1.24 1.33 1.94 3.25 2.11 5.75h-4.44c-.04-1.55-.28-2.61-.71-3.2-.44-.59-1.24-.88-2.4-.88-1.18 0-2.02.41-2.51 1.24-.49.83-.75 2.19-.78 4.08v4.14c0 2.17.24 3.67.73 4.48.49.81 1.32 1.22 2.5 1.22 1.16 0 1.96-.28 2.41-.85.44-.57.69-1.59.75-3.08h4.41zM169.42 223.53H165v-21.9h4.42v21.9zM189.15 214.55c0 2.94-.69 5.22-2.08 6.84-1.39 1.62-3.32 2.44-5.78 2.44-2.46 0-4.39-.81-5.79-2.41-1.4-1.61-2.11-3.86-2.14-6.76v-3.74c0-3.01.7-5.36 2.09-7.05 1.39-1.69 3.33-2.53 5.81-2.53 2.44 0 4.36.83 5.76 2.49s2.11 3.99 2.14 6.99v3.73zm-4.44-3.67c0-1.98-.28-3.45-.84-4.41-.56-.96-1.43-1.44-2.62-1.44-1.17 0-2.04.47-2.6 1.39-.56.93-.85 2.34-.87 4.23v3.9c0 1.91.29 3.32.86 4.23.57.91 1.45 1.36 2.65 1.36 1.15 0 2.01-.44 2.57-1.33.56-.89.85-2.26.86-4.13v-3.8zm-2.59-15.11h4.78l-4.18 4.66h-3.55l2.95-4.66zM208.27 223.53h-4.42l-6.46-14.36v14.36h-4.42v-21.9h4.42l6.48 14.38v-14.38h4.41v21.9zM32.54 250.5c-.85.92-1.9 1.62-3.14 2.08-1.24.47-2.59.7-4.07.7-2.52 0-4.47-.78-5.87-2.34-1.39-1.56-2.11-3.83-2.15-6.8v-3.94c0-3.02.66-5.34 1.98-6.97 1.32-1.63 3.24-2.44 5.77-2.44 2.38 0 4.17.59 5.38 1.76s1.91 3.01 2.1 5.52h-4.3c-.12-1.39-.41-2.34-.87-2.85-.46-.5-1.18-.76-2.17-.76-1.19 0-2.06.44-2.6 1.31-.54.87-.82 2.26-.84 4.16v3.97c0 2 .3 3.45.9 4.35.6.91 1.58 1.36 2.94 1.36.87 0 1.58-.18 2.12-.53l.39-.27v-4.02H25v-3.34h7.54v9.05zM46.91 248.5h-6.03l-1.17 4.48h-4.68l6.84-21.9h4.05l6.89 21.9h-4.72l-1.18-4.48zm-5.07-3.69h4.09L43.88 237l-2.04 7.81zM62.39 244.98h-2.2v8h-4.42v-21.9h7.05c2.22 0 3.93.57 5.14 1.72 1.21 1.15 1.81 2.78 1.81 4.9 0 2.91-1.06 4.94-3.17 6.11l3.83 8.96v.21h-4.75l-3.29-8zm-2.2-3.69h2.51c.88 0 1.55-.29 1.99-.88.44-.59.66-1.37.66-2.35 0-2.2-.86-3.29-2.57-3.29h-2.59v6.52zM84.73 248.5H78.7l-1.17 4.48h-4.68l6.84-21.9h4.04l6.89 21.9H85.9l-1.17-4.48zm-5.07-3.69h4.09L81.7 237l-2.04 7.81zM108.89 252.98h-4.42L98 238.62v14.36h-4.42v-21.9H98l6.48 14.38v-14.38h4.41v21.9zM127.29 234.77h-5.41v18.21h-4.44v-18.21h-5.32v-3.69h15.17v3.69zM135.02 252.98h-4.42v-21.9h4.42v21.9zM143.74 249.31h9.02v3.67h-14.2v-2.66l8.93-15.55h-9.02v-3.69h14.12v2.6l-8.85 15.63zM167.24 248.5h-6.03l-1.17 4.48h-4.68l6.84-21.9h4.04l6.89 21.9h-4.72l-1.17-4.48zm-5.06-3.69h4.09l-2.05-7.81-2.04 7.81zM176.09 252.98v-21.9h5.79c2.56 0 4.6.81 6.12 2.44 1.52 1.62 2.29 3.85 2.32 6.68v3.55c0 2.88-.76 5.14-2.28 6.77-1.52 1.64-3.61 2.46-6.28 2.46h-5.67zm4.42-18.21v14.54h1.32c1.47 0 2.51-.39 3.11-1.17.6-.78.92-2.12.95-4.02v-3.81c0-2.05-.29-3.47-.86-4.28s-1.54-1.23-2.92-1.27h-1.6zM203.99 248.5h-6.03l-1.18 4.48h-4.68l6.84-21.9H203l6.89 21.9h-4.72l-1.18-4.48zm-5.07-3.69h4.09l-2.05-7.81-2.04 7.81zM47.9 191.01H34.88v-41.45l-12.79 3.74v-9.86l24.62-8.51h1.19v56.08zM99.37 168.09c0 7.58-1.7 13.42-5.1 17.53-3.4 4.11-8.2 6.16-14.39 6.16-6.24 0-11.07-2.07-14.48-6.2-3.42-4.13-5.13-9.97-5.13-17.49v-10.25c0-7.58 1.7-13.42 5.11-17.53 3.4-4.11 8.21-6.16 14.43-6.16 6.21 0 11.03 2.07 14.45 6.2 3.42 4.14 5.12 9.98 5.12 17.53v10.21zm-12.98-11.9c0-4.03-.53-7.04-1.58-9.03-1.06-1.99-2.72-2.99-5.01-2.99-2.24 0-3.86.92-4.87 2.77-1.02 1.85-1.56 4.65-1.64 8.4v14.33c0 4.19.53 7.25 1.58 9.19 1.05 1.94 2.72 2.91 5.01 2.91 2.21 0 3.84-.94 4.89-2.83 1.05-1.89 1.59-4.85 1.62-8.88v-13.87zM145.21 168.09c0 7.58-1.7 13.42-5.1 17.53-3.4 4.11-8.2 6.16-14.39 6.16-6.24 0-11.07-2.07-14.49-6.2-3.42-4.13-5.12-9.97-5.12-17.49v-10.25c0-7.58 1.7-13.42 5.1-17.53 3.4-4.11 8.21-6.16 14.43-6.16 6.21 0 11.03 2.07 14.45 6.2 3.42 4.14 5.13 9.98 5.13 17.53v10.21zm-12.99-11.9c0-4.03-.53-7.04-1.58-9.03-1.05-1.99-2.72-2.99-5.01-2.99-2.24 0-3.86.92-4.88 2.77-1.01 1.85-1.56 4.65-1.64 8.4v14.33c0 4.19.53 7.25 1.58 9.19s2.72 2.91 5.01 2.91c2.21 0 3.84-.94 4.89-2.83 1.05-1.89 1.59-4.85 1.62-8.88v-13.87zM150.53 145.71c0-3.47 1.13-6.27 3.39-8.4s5.29-3.2 9.09-3.2c3.85 0 6.9 1.06 9.13 3.18 2.24 2.12 3.35 4.99 3.35 8.61v2.77c0 3.47-1.12 6.25-3.35 8.36-2.23 2.11-5.25 3.16-9.05 3.16-3.78 0-6.81-1.05-9.11-3.14s-3.45-4.96-3.45-8.61v-2.73zm8.36 2.95c0 1.33.37 2.41 1.12 3.23.74.83 1.77 1.24 3.08 1.24 2.7 0 4.04-1.71 4.04-5.13v-2.3c0-1.33-.36-2.42-1.08-3.27-.72-.85-1.74-1.28-3.04-1.28-1.26 0-2.26.41-3 1.24-.75.83-1.12 1.96-1.12 3.39v2.88zm6.67 38.15-6.05-3.04 27.39-43.84 6.05 3.04-27.39 43.84zm11.63-9.55c0-3.49 1.14-6.29 3.41-8.4 2.27-2.11 5.3-3.16 9.07-3.16 3.83 0 6.87 1.04 9.13 3.12s3.39 4.98 3.39 8.71v2.7c0 3.49-1.12 6.29-3.35 8.4-2.24 2.11-5.27 3.16-9.09 3.16-3.77 0-6.81-1.05-9.11-3.14s-3.45-4.96-3.45-8.61v-2.78zm8.32 2.96c0 1.2.41 2.25 1.23 3.16.82.91 1.83 1.36 3.01 1.36 2.49 0 3.84-1.17 4.04-3.52l.04-3.94c0-1.35-.37-2.44-1.12-3.27-.75-.83-1.76-1.24-3.04-1.24-1.23 0-2.22.39-2.97 1.17-.75.78-1.14 1.83-1.19 3.16v3.12z" class="st0"/></svg>